<svg width="28" height="25" viewBox="0 0 28 25" fill="none" xmlns="http://www.w3.org/2000/svg">
<g clip-path="url(#clip0_0_282)">
<path d="M4.50096 22.0792H20.9104L20.1267 19.7823L22.0014 21.2385L23.7195 22.6323L26.8497 25V2.57812C26.7715 1.18437 25.4457 0 23.8024 0L4.50671 0.003125C2.8645 0.003125 1.53186 1.18958 1.53186 2.58333V19.5C1.53186 20.9698 2.8622 22.0792 4.50096 22.0792ZM16.6397 5.91979L16.6017 5.93229L16.6156 5.91979H16.6397ZM7.85787 7.24167C9.96731 5.85208 11.9225 5.91875 11.9225 5.91875L12.0802 6.05937C9.49893 6.61667 8.32856 7.66042 8.32856 7.66042C8.32856 7.66042 8.64158 7.52187 9.18821 7.31042C12.6648 6.07292 16.4613 6.1625 19.9759 7.72917C19.9759 7.72917 18.8032 6.75312 16.3808 6.12812L16.5948 5.9375C16.9297 5.93854 18.702 5.99479 20.5985 7.25C20.5985 7.25 22.7206 10.5312 22.7206 14.5625C22.6504 14.4854 21.4041 16.2979 18.1968 16.3604C18.1968 16.3604 17.6536 15.8042 17.2669 15.3187C19.1427 14.8313 19.8447 13.8562 19.8447 13.8562C19.229 14.2073 18.6675 14.4156 18.2117 14.624C17.5109 14.9031 16.8089 15.0406 16.108 15.1812C12.7891 15.6687 10.9259 14.8531 9.1652 14.2062L8.56332 13.9292C8.56332 13.9292 9.26417 14.9042 11.0652 15.3917C10.5922 15.8802 10.1238 16.4354 10.1238 16.4354C6.91766 16.3667 5.74844 14.5542 5.74844 14.5542C5.74844 10.5167 7.85787 7.24167 7.85787 7.24167Z" fill="white"/>
<path d="M16.8469 13.3036C17.6651 13.3036 18.3314 12.6786 18.3314 11.9077C18.3314 11.1421 17.6685 10.5171 16.8469 10.5171V10.5202C16.0321 10.5202 15.3646 11.1431 15.3623 11.914C15.3623 12.6786 16.0286 13.3036 16.8469 13.3036Z" fill="white"/>
<path d="M11.5325 13.3036C12.3507 13.3036 13.017 12.6786 13.017 11.9077C13.017 11.1421 12.3553 10.5171 11.5371 10.5171L11.5325 10.5202C10.7142 10.5202 10.0479 11.1431 10.0479 11.914C10.0479 12.6786 10.7142 13.3036 11.5325 13.3036Z" fill="white"/>
</g>
<defs>
<clipPath id="clip0_0_282">
<rect width="27.6195" height="25" fill="white" transform="translate(0.381104)"/>
</clipPath>
</defs>
</svg>
