<svg width="29" height="25" viewBox="0 0 29 25" fill="none" xmlns="http://www.w3.org/2000/svg">
<g clip-path="url(#clip0_0_274)">
<path d="M28.5703 4.74844C27.5432 5.15625 26.4487 5.42656 25.3077 5.55781C26.4815 4.92344 27.3774 3.92656 27.7986 2.725C26.7042 3.31562 25.4959 3.73281 24.2081 3.96563C23.1689 2.96406 21.6878 2.34375 20.0721 2.34375C16.9373 2.34375 14.4135 4.64688 14.4135 7.47031C14.4135 7.87656 14.4515 8.26719 14.5447 8.63906C9.83735 8.43125 5.67198 6.38906 2.87378 3.27813C2.38526 4.04531 2.09871 4.92344 2.09871 5.86875C2.09871 7.64375 3.10855 9.21719 4.61381 10.1281C3.70409 10.1125 2.81164 9.87344 2.05555 9.49688C2.05555 9.5125 2.05555 9.53281 2.05555 9.55312C2.05555 12.0437 4.01826 14.1125 6.59205 14.5891C6.13116 14.7031 5.62883 14.7578 5.10751 14.7578C4.745 14.7578 4.37904 14.7391 4.03553 14.6703C4.76917 16.7 6.85099 18.1922 9.32638 18.2406C7.39993 19.6047 4.95387 20.4266 2.30586 20.4266C1.8415 20.4266 1.39614 20.4078 0.950775 20.3563C3.45897 21.8203 6.43152 22.6562 9.6371 22.6562C20.0566 22.6562 25.7531 14.8438 25.7531 8.07187C25.7531 7.84531 25.7444 7.62656 25.7324 7.40938C26.8561 6.6875 27.8004 5.78594 28.5703 4.74844Z" fill="white"/>
</g>
<defs>
<clipPath id="clip0_0_274">
<rect width="27.6195" height="25" fill="white" transform="translate(0.950775)"/>
</clipPath>
</defs>
</svg>
